DBRep_DrawableShape

CASCADE Topology V1, (c) Matra-Datavision
Locations 21
1
              1               0               0               0 
              0               1               0               0 
              0               0               1               0 
1
              1               0               0               0 
              0               1               0               0 
              0               0               1               0 
2  2 -1 0
1
              1               0               0               0 
              0               1               0               0 
              0               0               1              10 
1
              1               0               0               0 
              0               1               0               0 
              0               0               1               0 
2  4 -1 5 -1 0
2  5 -1 0
2  2 -1 5 -1 0
2  2 -1 4 -1 5 -1 0
2  5 1 4 1 0
2  5 1 2 1 0
2  5 1 4 1 2 1 0
1
              1               0               0               0 
              0               1               0               0 
              0               0               1               0 
2  13 -1 0
1
              1               0               0               0 
              0               1               0               0 
              0               0               1               0 
2  15 1 13 1 0
2  13 -1 15 -1 0
2  4 1 2 1 0
1
              1               0               0               0 
              0               1               0               0 
              0               0               1              10 
2  15 1 19 1 13 1 0
2  13 -1 19 -1 15 -1 0
Curve2ds 4
1 3.142278665913206 0 0 -1 
1 0 0 1 0 
1 0 -10 1 0 
1 4.7123904428623424 0 0 -1 
Curves 16
1 -93.538489999999996 48.600201936462888 0 0 0 1 
1 -93.538489999999996 13.611533999999999 0 0 0 1 
1 -93.538489999999996 48.600201936462888 0 0 -1 0 
1 -93.538489999999996 48.600201936462888 0 1 0 0 
1 -60.655325765584593 48.600201936462888 0 0 0 1 
1 -93.538489999999996 13.611533999999999 0 1 0 0 
1 -77.204635999999994 13.611533999999999 0 0 0 1 
1 -60.655325765584593 48.600201936462888 0 -0.42757415335144289 -0.90398027820622107 0 
2 -40.181278404421256 48.614247387466108 0 0 0 1 1 0 -0 -0 1 0 20.474052178839759
1 -40.181248461577496 28.140195208637294 0 0 0 1 
1 -40.181248461577489 28.140195208648244 0 0 -1 0 
1 -40.181248461577489 13.611533999999999 0 0 0 1 
1 90.925063999999992 28.140195208626345 0 0 0 1 
1 90.925063999999992 28.140195208626345 0 -1 0 0 
1 90.925063999999992 13.611533999999999 0 0 0 1 
1 90.925063999999992 13.611533999999999 0 0 1 0 
Polygon3D 0
PolygonOnTriangulations 78
2 1 2 
p 0.152968150237045 1 0 10 
2 1 2 
p 0.152968150237045 1 0 10 
2 1 2 
p 0.152968150237045 1 0 10 
2 1 2 
p 0.152968150237045 1 0 10 
2 3 4 
p 0.152968150237045 1 0 10 
2 1 2 
p 0.152968150237045 1 0 10 
2 1 4 
p 0.152968150237045 1 0 10 
2 1 4 
p 0.152968150237045 1 0 10 
2 2 4 
p 0.152968150237045 1 0 34.9886679364629 
2 1 3 
p 0.152968150237045 1 0 34.9886679364629 
2 1 2 
p 0.152968150237045 1 0 34.9886679364629 
2 1 4 
p 0.152968150237045 1 0 34.9886679364629 
2 1 4 
p 0.152968150237045 1 0 34.9886679364629 
2 1 4 
p 0.152968150237045 1 0 34.9886679364629 
2 1 4 
p 0.152968150237045 1 0 34.9886679364629 
2 1 3 
p 0.152968150237045 1 0 32.8831642344154 
2 1 2 
p 0.152968150237045 1 0 32.8831642344154 
2 2 4 
p 0.152968150237045 1 0 32.8831642344154 
2 1 2 
p 0.152968150237045 1 0 32.8831642344154 
2 1 2 
p 0.152968150237045 1 0 10 
2 3 4 
p 0.152968150237045 1 0 10 
2 1 2 
p 0.152968150237045 1 0 10 
2 1 2 
p 0.152968150237045 1 0 16.333854 
2 4 3 
p 0.152968150237045 1 0 16.333854 
2 2 3 
p 0.152968150237045 1 0 10 
2 3 4 
p 0.152968150237045 1 0 10 
2 1 4 
p 0.152968150237045 1 0 10 
2 4 3 
p 0.152968150237045 1 0 16.333854 
2 4 3 
p 0.152968150237045 1 0 16.333854 
2 2 3 
p 0.152968150237045 1 0 38.7051230872993 
2 1 3 
p 0.152968150237045 1 0 38.7051230872993 
2 1 21 
p 0.152968150237045 1 0 38.7051230872993 
2 2 3 
p 0.152968150237045 1 0 38.7051230872993 
2 2 4 
p 0.152968150237045 1 0 38.7051230872993 
2 1 21 
p 0.152968150237045 1 0 38.7051230872993 
19 1 4 5 6 7 8 9 10 11 12 13 14 15 16 17 18 19 20 3 
p 0.152968150237045 1 3.14227866591321 3.22950709796594 3.31673553001867 3.4039639620714 3.49119239412413 3.57842082617686 3.66564925822959 3.75287769028232 3.84010612233505 3.92733455438777 4.01456298644051 4.10179141849324 4.18901985054596 4.27624828259869 4.36347671465142 4.45070514670415 4.53793357875688 4.62516201080961 4.71239044286234 
19 1 3 4 5 6 7 8 9 10 11 12 13 14 15 16 17 18 19 2 
p 0.152968150237045 1 3.14227866591321 3.22950709796594 3.31673553001867 3.4039639620714 3.49119239412413 3.57842082617686 3.66564925822959 3.75287769028232 3.84010612233505 3.92733455438777 4.01456298644051 4.10179141849324 4.18901985054596 4.27624828259869 4.36347671465142 4.45070514670415 4.53793357875688 4.62516201080961 4.71239044286234 
19 2 22 23 24 25 26 27 28 29 30 31 32 33 34 35 36 37 38 21 
p 0.152968150237045 1 3.14227866591321 3.22950709796594 3.31673553001867 3.4039639620714 3.49119239412413 3.57842082617686 3.66564925822959 3.75287769028232 3.84010612233505 3.92733455438777 4.01456298644051 4.10179141849324 4.18901985054596 4.27624828259869 4.36347671465142 4.45070514670415 4.53793357875688 4.62516201080961 4.71239044286234 
19 1 3 4 5 6 7 8 9 10 11 12 13 14 15 16 17 18 19 2 
p 0.152968150237045 1 3.14227866591321 3.22950709796594 3.31673553001867 3.4039639620714 3.49119239412413 3.57842082617686 3.66564925822959 3.75287769028232 3.84010612233505 3.92733455438777 4.01456298644051 4.10179141849324 4.18901985054596 4.27624828259869 4.36347671465142 4.45070514670415 4.53793357875688 4.62516201080961 4.71239044286234 
2 3 21 
p 0.152968150237045 1 0 10 
2 1 2 
p 0.152968150237045 1 0 10 
2 3 4 
p 0.152968150237045 1 0 10 
2 2 20 
p 0.152968150237045 1 0 14.5286612086482 
2 1 3 
p 0.152968150237045 1 0 14.5286612086482 
2 2 4 
p 0.152968150237045 1 0 14.5286612086482 
2 21 20 
p 0.152968150237045 1 16.333854 53.3572415384225 
2 1 2 
p 0.152968150237045 1 16.333854 53.3572415384225 
2 2 20 
p 0.152968150237045 1 0 14.5286612086482 
2 2 4 
p 0.152968150237045 1 0 14.5286612086482 
2 2 4 
p 0.152968150237045 1 0 14.5286612086482 
2 21 20 
p 0.152968150237045 1 16.333854 53.3572415384225 
2 4 3 
p 0.152968150237045 1 16.333854 53.3572415384225 
2 3 4 
p 0.152968150237045 1 0 10 
2 2 3 
p 0.152968150237045 1 0 10 
2 1 4 
p 0.152968150237045 1 0 10 
2 3 4 
p 0.152968150237045 1 0 10 
2 1 2 
p 0.152968150237045 1 0 10 
2 1 2 
p 0.152968150237045 1 0 10 
2 1 2 
p 0.152968150237045 1 0 10 
2 1 3 
p 0.152968150237045 1 0 131.106312461577 
2 1 2 
p 0.152968150237045 1 0 131.106312461577 
2 2 4 
p 0.152968150237045 1 0 131.106312461577 
2 1 2 
p 0.152968150237045 1 0 131.106312461577 
2 3 4 
p 0.152968150237045 1 0 10 
2 1 2 
p 0.152968150237045 1 0 10 
2 2 3 
p 0.152968150237045 1 0 10 
2 2 3 
p 0.152968150237045 1 0 10 
2 1 3 
p 0.152968150237045 1 0 14.5286612086263 
2 2 4 
p 0.152968150237045 1 0 14.5286612086263 
2 3 4 
p 0.152968150237045 1 0 14.5286612086263 
2 3 1 
p 0.152968150237045 1 0 14.5286612086263 
2 3 1 
p 0.152968150237045 1 0 14.5286612086263 
2 3 1 
p 0.152968150237045 1 0 14.5286612086263 
2 3 1 
p 0.152968150237045 1 0 14.5286612086263 
2 4 3 
p 0.152968150237045 1 53.3572415384225 184.463554 
2 1 2 
p 0.152968150237045 1 53.3572415384225 184.463554 
2 4 3 
p 0.152968150237045 1 53.3572415384225 184.463554 
2 4 3 
p 0.152968150237045 1 53.3572415384225 184.463554 
Surfaces 9
1 -93.538489999999996 48.600201936462888 0 1 0 -0 0 -1 0 0 -0 -1 
1 -93.538489999999996 48.600201936462888 0 0 1 0 1 0 0 0 0 -1 
2 -40.181278404421256 48.614247387466108 0 -0 -0 -1 1 0 0 0 1 0 20.474052178839759
1 -93.538489999999996 13.611533999999999 0 0 1 0 1 0 0 0 0 -1 
1 -7.1744225562122566 24.037293967442867 0 0 0 1 1 0 -0 -0 1 0 
1 -60.655325765584593 48.600201936462888 0 0.90398027820622107 -0.42757415335144289 0 -0.42757415335144289 -0.90398027820622107 0 0 -0 -1 
1 90.925063999999992 28.140195208626345 0 0 -1 0 -1 0 0 -0 -0 -1 
1 -40.181248461577489 28.140195208648244 0 1 0 -0 0 -1 0 0 -0 -1 
1 90.925063999999992 13.611533999999999 0 -1 0 0 0 1 0 0 0 -1 
Triangulations 28
4 2 1 8.88178419700125e-016
-93.53849 48.6002019364629 0 -93.53849 48.6002019364629 10 -93.53849 13.611534 0 -93.53849 13.611534 10 0 0 0 -10 34.9886679364629 0 34.9886679364629 -10 3 1 2 3 2 4 
4 2 1 0
-93.53849 48.6002019364629 0 -93.53849 48.6002019364629 10 -60.6553257655846 48.6002019364629 0 -60.6553257655846 48.6002019364629 10 0 0 0 -10 32.8831642344154 0 32.8831642344154 -10 3 1 2 3 2 4 
4 2 1 0
-93.53849 48.6002019364629 0 -93.53849 48.6002019364629 10 -60.6553257655846 48.6002019364629 0 -60.6553257655846 48.6002019364629 10 0 0 0 -10 32.8831642344154 0 32.8831642344154 -10 3 1 2 3 2 4 
4 2 1 0
-93.53849 48.6002019364629 0 -93.53849 48.6002019364629 10 -60.6553257655846 48.6002019364629 0 -60.6553257655846 48.6002019364629 10 0 0 0 -10 32.8831642344154 0 32.8831642344154 -10 3 1 2 3 2 4 
4 2 1 0
-93.53849 13.611534 0 -93.53849 13.611534 10 90.925064 13.611534 0 90.925064 13.611534 10 0 0 0 -10 184.463554 0 184.463554 -10 3 1 2 3 2 4 
4 2 1 0
-93.53849 13.611534 0 -77.204636 13.611534 0 -77.204636 13.611534 10 -93.53849 13.611534 10 0 0 16.333854 0 16.333854 -10 0 -10 2 4 3 2 1 4 
4 2 1 0
-93.53849 13.611534 0 -77.204636 13.611534 0 -77.204636 13.611534 10 -93.53849 13.611534 10 0 0 16.333854 0 16.333854 -10 0 -10 2 4 3 2 1 4 
23 21 1 8.43769498715119e-015
-93.53849 48.6002019364629 0 -93.53849 13.611534 0 90.925064 13.611534 0 90.925064 28.1401952086263 0 -40.1812484615775 28.1401952086373 0 -60.6553257655846 48.6002019364629 0 -60.5762600726313 46.8166002098399 0 -60.3421114265908 45.046667749385 0 -59.9546602881704 43.3038630792193 0 -59.4168528265651 41.6014384443951 0 -58.7327785168574 39.9523390411412 0 -57.9076390437463 38.3691045819001 0 -56.9477087480613 36.8637739436545 0 -55.8602869168248 35.4477936245947 0 -54.653642279648 34.1319307052193 0 -53.3369501335086 32.9261909757131 0 -51.920222574012 31.8397428521576 0 -50.4142323636553 30.880847660114 0 -48.8304310159991 30.0567968157014 0 -47.1808617186322 29.3738563818427 0 -45.4780677570608 28.8372194212722 0 -43.7349971358653 28.4509665086102 0 -41.9649041223834 28.2180347017718 0 -86.3640674437877 24.56290796902 -86.3640674437877 -10.4257599674429 98.0994865562122 -10.4257599674429 98.0994865562122 4.10290124118348 -33.0068259053652 4.10290124119443 -53.4809032093723 24.56290796902 -53.4018375164191 22.7793062423971 -53.1676888703786 21.0093737819421 -52.7802377319582 19.2665691117764 -52.2424302703529 17.5641444769522 -51.5583559606452 15.9150450736983 -50.733216487534 14.3318106144572 -49.773286191849 12.8264799762117 -48.6858643606125 11.4104996571518 -47.4792197234357 10.0946367377764 -46.1625275772964 8.88889700827026 -44.7458000177997 7.80244888471475 -43.239809807443 6.84355369267118 -41.6560084597869 6.01950284825857 -40.00643916242 5.33656241439988 -38.3036452008485 4.79992545382929 -36.5605745796531 4.41367254116732 -34.7904815661711 4.18074073432894 14 2 15 16 15 2 13 2 14 17 16 2 12 2 13 18 17 2 11 1 2 11 2 12 19 18 2 10 1 11 20 19 2 9 1 10 21 20 2 8 1 9 22 21 2 7 1 8 23 22 2 6 1 7 5 23 2 3 5 2 4 5 3 
4 2 1 1.4210854715202e-014
-93.53849 48.6002019364629 0 -60.6553257655846 48.6002019364629 0 -77.204636 13.611534 0 -93.53849 13.611534 0 -86.3640674437877 24.56290796902 -53.4809032093723 24.56290796902 -70.0302134437877 -10.4257599674429 -86.3640674437877 -10.4257599674429 1 4 3 2 1 3 
4 2 1 1.4210854715202e-014
-93.53849 48.6002019364629 10 -60.6553257655846 48.6002019364629 10 -77.204636 13.611534 10 -93.53849 13.611534 10 -86.3640674437877 24.56290796902 -53.4809032093723 24.56290796902 -70.0302134437877 -10.4257599674429 -86.3640674437877 -10.4257599674429 1 4 3 2 1 3 
4 2 1 1.4210854715202e-014
-93.53849 48.6002019364629 0 -60.6553257655846 48.6002019364629 0 -77.204636 13.611534 0 -93.53849 13.611534 0 -86.3640674437877 24.56290796902 -53.4809032093723 24.56290796902 -70.0302134437877 -10.4257599674429 -86.3640674437877 -10.4257599674429 1 4 3 2 1 3 
4 2 1 1.4210854715202e-014
-93.53849 48.6002019364629 10 -60.6553257655846 48.6002019364629 10 -77.204636 13.611534 10 -93.53849 13.611534 10 -86.3640674437877 24.56290796902 -53.4809032093723 24.56290796902 -70.0302134437877 -10.4257599674429 -86.3640674437877 -10.4257599674429 1 4 3 2 1 3 
38 36 1 0.0194697828068547
-60.6553257655846 48.6002019364629 0 -60.6553257655846 48.6002019364629 10 -40.1812484615775 28.1401952086373 0 -60.5762600726313 46.8166002098399 0 -60.3421114265908 45.046667749385 0 -59.9546602881704 43.3038630792193 0 -59.4168528265651 41.6014384443951 0 -58.7327785168574 39.9523390411412 0 -57.9076390437463 38.3691045819001 0 -56.9477087480613 36.8637739436545 0 -55.8602869168248 35.4477936245947 0 -54.653642279648 34.1319307052193 0 -53.3369501335086 32.9261909757131 0 -51.920222574012 31.8397428521576 0 -50.4142323636553 30.880847660114 0 -48.8304310159991 30.0567968157014 0 -47.1808617186322 29.3738563818427 0 -45.4780677570608 28.8372194212722 0 -43.7349971358653 28.4509665086102 0 -41.9649041223834 28.2180347017718 0 -40.1812484615775 28.1401952086373 10 -60.5762600726313 46.8166002098399 10 -60.3421114265908 45.046667749385 10 -59.9546602881704 43.3038630792193 10 -59.4168528265651 41.6014384443951 10 -58.7327785168574 39.9523390411412 10 -57.9076390437463 38.3691045819001 10 -56.9477087480613 36.8637739436545 10 -55.8602869168248 35.4477936245947 10 -54.653642279648 34.1319307052193 10 -53.3369501335086 32.9261909757131 10 -51.920222574012 31.8397428521576 10 -50.4142323636553 30.880847660114 10 -48.8304310159991 30.0567968157014 10 -47.1808617186322 29.3738563818427 10 -45.4780677570608 28.8372194212722 10 -43.7349971358653 28.4509665086102 10 -41.9649041223834 28.2180347017718 10 3.14227866591321 0 3.14227866591321 -10 4.71239044286234 0 3.22950709796594 0 3.31673553001867 0 3.4039639620714 0 3.49119239412413 0 3.57842082617686 0 3.66564925822959 0 3.75287769028232 0 3.84010612233505 0 3.92733455438777 0 4.01456298644051 0 4.10179141849324 0 4.18901985054596 0 4.27624828259869 0 4.36347671465142 0 4.45070514670415 0 4.53793357875688 0 4.62516201080961 0 4.71239044286234 -10 3.22950709796594 -10 3.31673553001867 -10 3.4039639620714 -10 3.49119239412413 -10 3.57842082617686 -10 3.66564925822959 -10 3.75287769028232 -10 3.84010612233505 -10 3.92733455438777 -10 4.01456298644051 -10 4.10179141849324 -10 4.18901985054596 -10 4.27624828259869 -10 4.36347671465142 -10 4.45070514670415 -10 4.53793357875688 -10 4.62516201080961 -10 3 20 38 3 38 21 4 1 2 4 2 22 5 22 23 5 4 22 6 23 24 6 5 23 7 24 25 7 6 24 8 25 26 8 7 25 9 26 27 9 8 26 10 27 28 10 9 27 11 28 29 11 10 28 12 29 30 12 11 29 13 30 31 13 12 30 14 31 32 14 13 31 15 32 33 15 14 32 16 33 34 16 15 33 17 34 35 17 16 34 18 17 35 18 35 36 19 18 36 19 36 37 20 19 37 20 37 38 
4 2 1 4.44089209850063e-016
-60.6553257655846 48.6002019364629 0 -60.6553257655846 48.6002019364629 10 -77.204636 13.611534 0 -77.204636 13.611534 10 0 0 0 -10 38.7051230872993 0 38.7051230872993 -10 4 1 2 3 1 4 
4 2 1 1.77635683940025e-015
-77.204636 13.611534 0 -40.1812484615775 13.611534 0 -40.1812484615775 13.611534 10 -77.204636 13.611534 10 16.333854 0 53.3572415384225 0 53.3572415384225 -10 16.333854 -10 2 4 3 2 1 4 
21 19 1 8.88178419700125e-015
-60.6553257655846 48.6002019364629 0 -40.1812484615775 28.1401952086373 0 -60.5762600726313 46.8166002098399 0 -60.3421114265908 45.046667749385 0 -59.9546602881704 43.3038630792193 0 -59.4168528265651 41.6014384443951 0 -58.7327785168574 39.9523390411412 0 -57.9076390437463 38.3691045819001 0 -56.9477087480613 36.8637739436545 0 -55.8602869168248 35.4477936245947 0 -54.653642279648 34.1319307052193 0 -53.3369501335086 32.9261909757131 0 -51.920222574012 31.8397428521576 0 -50.4142323636553 30.880847660114 0 -48.8304310159991 30.0567968157014 0 -47.1808617186322 29.3738563818427 0 -45.4780677570608 28.8372194212722 0 -43.7349971358653 28.4509665086102 0 -41.9649041223834 28.2180347017718 0 -40.1812484615775 13.611534 0 -77.204636 13.611534 0 -53.4809032093723 24.56290796902 -33.0068259053652 4.10290124119443 -53.4018375164191 22.7793062423971 -53.1676888703786 21.0093737819421 -52.7802377319582 19.2665691117764 -52.2424302703529 17.5641444769522 -51.5583559606452 15.9150450736983 -50.733216487534 14.3318106144572 -49.773286191849 12.8264799762117 -48.6858643606125 11.4104996571518 -47.4792197234357 10.0946367377764 -46.1625275772964 8.88889700827026 -44.7458000177997 7.80244888471475 -43.239809807443 6.84355369267118 -41.6560084597869 6.01950284825857 -40.00643916242 5.33656241439988 -38.3036452008485 4.79992545382929 -36.5605745796531 4.41367254116732 -34.7904815661711 4.18074073432894 -33.0068259053652 -10.4257599674429 -70.0302134437877 -10.4257599674429 10 21 11 12 11 21 9 21 10 13 12 21 8 21 9 14 21 20 14 13 21 7 21 8 15 14 20 6 21 7 16 15 20 5 21 6 17 16 20 4 21 5 18 17 20 3 21 4 19 18 20 1 21 3 2 19 20 
21 19 1 8.88178419700125e-015
-60.6553257655846 48.6002019364629 10 -40.1812484615775 28.1401952086373 10 -60.5762600726313 46.8166002098399 10 -60.3421114265908 45.046667749385 10 -59.9546602881704 43.3038630792193 10 -59.4168528265651 41.6014384443951 10 -58.7327785168574 39.9523390411412 10 -57.9076390437463 38.3691045819001 10 -56.9477087480613 36.8637739436545 10 -55.8602869168248 35.4477936245947 10 -54.653642279648 34.1319307052193 10 -53.3369501335086 32.9261909757131 10 -51.920222574012 31.8397428521576 10 -50.4142323636553 30.880847660114 10 -48.8304310159991 30.0567968157014 10 -47.1808617186322 29.3738563818427 10 -45.4780677570608 28.8372194212722 10 -43.7349971358653 28.4509665086102 10 -41.9649041223834 28.2180347017718 10 -40.1812484615775 13.611534 10 -77.204636 13.611534 10 -53.4809032093723 24.56290796902 -33.0068259053652 4.10290124119443 -53.4018375164191 22.7793062423971 -53.1676888703786 21.0093737819421 -52.7802377319582 19.2665691117764 -52.2424302703529 17.5641444769522 -51.5583559606452 15.9150450736983 -50.733216487534 14.3318106144572 -49.773286191849 12.8264799762117 -48.6858643606125 11.4104996571518 -47.4792197234357 10.0946367377764 -46.1625275772964 8.88889700827026 -44.7458000177997 7.80244888471475 -43.239809807443 6.84355369267118 -41.6560084597869 6.01950284825857 -40.00643916242 5.33656241439988 -38.3036452008485 4.79992545382929 -36.5605745796531 4.41367254116732 -34.7904815661711 4.18074073432894 -33.0068259053652 -10.4257599674429 -70.0302134437877 -10.4257599674429 10 21 11 12 11 21 9 21 10 13 12 21 8 21 9 14 21 20 14 13 21 7 21 8 15 14 20 6 21 7 16 15 20 5 21 6 17 16 20 4 21 5 18 17 20 3 21 4 19 18 20 1 21 3 2 19 20 
4 2 1 4.736951571734e-015
-40.1812484615775 28.1401952086373 0 -40.1812484615775 28.1401952086373 10 -40.1812484615775 13.611534 0 -40.1812484615775 13.611534 10 1.09494635580631e-011 0 1.09494635580631e-011 -10 14.5286612086482 0 14.5286612086482 -10 3 1 2 3 2 4 
4 2 1 7.2996423720421e-012
90.925064 28.1401952086263 0 90.925064 28.1401952086263 10 -40.1812484615775 28.1401952086373 0 -40.1812484615775 28.1401952086373 10 0 0 0 -10 131.106312461577 0 131.106312461577 -10 4 1 2 3 1 4 
4 2 1 0
90.925064 28.1401952086263 0 -40.1812484615775 28.1401952086373 0 90.925064 13.611534 0 -40.1812484615775 13.611534 0 98.0994865562122 4.10290124118348 -33.0068259053652 4.10290124119443 98.0994865562122 -10.4257599674429 -33.0068259053652 -10.4257599674429 1 4 3 1 2 4 
4 2 1 0
90.925064 28.1401952086263 10 -40.1812484615775 28.1401952086373 10 90.925064 13.611534 10 -40.1812484615775 13.611534 10 98.0994865562122 4.10290124118348 -33.0068259053652 4.10290124119443 98.0994865562122 -10.4257599674429 -33.0068259053652 -10.4257599674429 1 4 3 1 2 4 
4 2 1 0
-40.1812484615775 13.611534 0 90.925064 13.611534 0 90.925064 13.611534 10 -40.1812484615775 13.611534 10 53.3572415384225 0 184.463554 0 184.463554 -10 53.3572415384225 -10 2 4 3 2 1 4 
4 2 1 8.88178419700125e-016
90.925064 13.611534 0 90.925064 13.611534 10 90.925064 28.1401952086263 0 90.925064 28.1401952086263 10 0 0 0 -10 14.5286612086263 0 14.5286612086263 -10 4 1 2 3 1 4 
4 2 1 7.2996423720421e-012
90.925064 28.1401952086263 0 90.925064 28.1401952086263 10 -40.1812484615775 28.1401952086373 0 -40.1812484615775 28.1401952086373 10 0 0 0 -10 131.106312461577 0 131.106312461577 -10 4 1 2 3 1 4 
4 2 1 7.2996423720421e-012
90.925064 28.1401952086263 0 90.925064 28.1401952086263 10 -40.1812484615775 28.1401952086373 0 -40.1812484615775 28.1401952086373 10 0 0 0 -10 131.106312461577 0 131.106312461577 -10 4 1 2 3 1 4 
4 2 1 0
-40.1812484615775 13.611534 0 90.925064 13.611534 0 90.925064 13.611534 10 -40.1812484615775 13.611534 10 53.3572415384225 0 184.463554 0 184.463554 -10 53.3572415384225 -10 2 4 3 2 1 4 
4 2 1 0
90.925064 28.1401952086263 0 -40.1812484615775 28.1401952086373 0 90.925064 13.611534 0 -40.1812484615775 13.611534 0 98.0994865562122 4.10290124118348 -33.0068259053652 4.10290124119443 98.0994865562122 -10.4257599674429 -33.0068259053652 -10.4257599674429 1 4 3 1 2 4 
4 2 1 0
90.925064 28.1401952086263 10 -40.1812484615775 28.1401952086373 10 90.925064 13.611534 10 -40.1812484615775 13.611534 10 98.0994865562122 4.10290124118348 -33.0068259053652 4.10290124119443 98.0994865562122 -10.4257599674429 -33.0068259053652 -10.4257599674429 1 4 3 1 2 4 

TShapes 78
Ve
1e-007
-93.53849 48.6002019364629 0
0 0

0101101
*
Ed
 1e-007 1 1 0
1  1 0 0 10
6  1 1 0
6  2 2 0
6  3 3 3
6  4 4 3
0

0101000
+78 0 -78 4 *
Ve
1e-007
-93.53849 13.611534 0
0 0

0101101
*
Ed
 1e-007 1 1 0
1  2 0 0 10
6  5 1 0
6  6 5 0
6  7 6 3
6  8 7 3
0

0101000
+76 0 -76 4 *
Ed
 1e-007 1 1 0
1  3 0 0 34.9886679364629
6  9 1 6
6  10 1 7
6  11 8 7
6  12 9 8
6  13 10 9
6  14 11 8
6  15 12 9
0

0101000
+78 7 -76 7 *
Wi

0101100
+77 0 -75 0 -74 5 +74 10 *
Fa
0  1e-007 1 0
2  1
0111000
+73 0 *
Ve
1e-007
-60.6553257655846 48.6002019364629 0
0 0

0101101
*
Ed
 1e-007 1 1 0
1  4 0 0 32.8831642344154
6  16 4 8
6  17 11 8
0

0101000
+78 7 -71 8 *
Ve
1e-007
-60.6553257655846 48.6002019364629 10
0 0

0101101
*
Ed
 1e-007 1 1 0
1  4 0 0 32.8831642344154
6  18 4 9
6  19 12 9
0

0101000
+78 7 -69 9 *
Ed
 1e-007 1 1 0
1  5 0 0 10
2  1 3 0 0 10
6  20 13 3
6  21 4 3
6  22 14 3
0

0101000
+71 3 -69 3 *
Wi

0101100
+77 2 -70 11 +68 12 -67 2 *
Fa
0  1e-007 2 2
2  4
0101000
+66 0 *
Ve
1e-007
-77.204636 13.611534 0
0 0

0101101
*
Ed
 1e-007 1 1 0
1  6 0 0 16.333854
6  23 7 8
6  24 11 8
0

0101000
+76 7 -64 8 *
Ve
1e-007
-77.204636 13.611534 10
0 0

0101101
*
Ed
 1e-007 1 1 0
1  7 0 0 10
6  25 7 14
6  26 14 14
6  27 15 14
0

0101000
+64 14 -62 14 *
Ed
 1e-007 1 1 0
1  6 0 0 16.333854
6  28 7 9
6  29 12 9
0

0101000
+76 7 -62 9 *
Wi

0101100
-63 11 -61 13 +60 12 +75 2 *
Fa
0  1e-007 4 2
2  7
0101000
+59 0 *
Ed
 1e-007 1 1 0
1  8 0 0 38.7051230872993
6  30 11 17
6  31 14 17
6  32 16 17
0

0101000
+71 17 -64 17 *
Wi

0101100
-70 11 -57 16 +63 11 +74 11 *
Fa
0  1e-007 5 2
2  11
0101000
+56 0 *
Ed
 1e-007 1 1 0
1  8 0 0 38.7051230872993
6  33 12 21
6  34 14 21
6  35 17 21
0

0101000
+69 21 -62 21 *
Wi

0101100
-68 12 -54 20 +60 12 +74 12 *
Fa
0  1e-007 5 18
2  12
0101000
+53 0 *
Wi

0101100
+67 2 -57 16 +54 20 -61 13 *
Fa
0  1e-007 6 13
2  14
0101000
+51 0 *
Sh

0101100
-72 2 +65 0 -58 0 -55 0 +52 0 +50 0 *
So

0100000
+49 0 *
Ve
1.00010949465864e-007
-40.1812484615775 28.1401952086373 0
0 0

0101101
*
Ed
 1e-007 1 1 0
1  9 0 3.14227866591321 4.71239044286234
2  2 3 7 3.14227866591321 4.71239044286234
2  3 3 6 3.14227866591321 4.71239044286234
6  36 13 8
6  37 16 8
0

0101000
+71 8 -47 8 *
Ve
1.00010949465864e-007
-40.1812484615775 28.1401952086373 10
0 0

0101101
*
Ed
 1e-007 1 1 0
1  9 0 3.14227866591321 4.71239044286234
2  2 3 7 3.14227866591321 4.71239044286234
2  3 3 6 3.14227866591321 4.71239044286234
6  38 13 9
6  39 17 9
0

0101000
+69 9 -45 9 *
Ed
 1.00010949465864e-007 1 1 0
1  10 0 0 10
2  4 3 0 0 10
4 G1 7 0 3 0
6  40 13 3
6  41 18 3
6  42 19 3
0

0101000
+47 3 -45 3 *
Wi

0101100
+67 2 -46 11 +44 12 -43 2 *
Fa
0  1e-007 3 2
2  13
0101000
+42 0 *
Ve
1e-007
-40.1812484615775 13.611534 0
0 0

0101101
*
Ed
 1e-007 1 1 0
1  11 0 0 14.5286612086482
6  43 16 17
6  44 18 17
6  45 20 17
0

0101000
+47 17 -40 17 *
Ed
 1e-007 1 1 0
1  6 0 16.333854 53.3572415384225
6  46 16 8
6  47 15 8
0

0101000
+64 8 -40 8 *
Wi

0101100
-46 11 -39 16 +38 11 +57 16 *
Fa
0  1e-007 5 2
2  16
0101000
+37 0 *
Ve
1e-007
-40.1812484615775 13.611534 10
0 0

0101101
*
Ed
 1e-007 1 1 0
1  11 0 0 14.5286612086482
6  48 17 21
6  49 18 21
6  50 21 21
0

0101000
+45 21 -35 21 *
Ed
 1e-007 1 1 0
1  6 0 16.333854 53.3572415384225
6  51 17 9
6  52 15 9
0

0101000
+62 9 -35 9 *
Wi

0101100
-44 12 -34 20 +33 12 +54 20 *
Fa
0  1e-007 5 18
2  17
0101000
+32 0 *
Ed
 1e-007 1 1 0
1  12 0 0 10
6  53 18 14
6  54 15 14
6  55 22 14
0

0101000
+40 14 -35 14 *
Wi

0101100
+43 2 -39 16 +34 20 -30 13 *
Fa
0  1e-007 8 13
2  18
0101000
+29 0 *
Wi

0101100
-38 11 -30 13 +33 12 +61 13 *
Fa
0  1e-007 4 2
2  15
0101000
+27 0 *
Sh

0101100
+41 0 -50 0 -36 0 +31 0 +28 0 -26 0 *
So

0100000
+25 0 *
Ve
1e-007
90.925064 28.1401952086263 0
0 0

0101101
*
Ed
 1e-007 1 1 0
1  13 0 0 10
6  56 23 0
6  57 24 0
6  58 25 3
6  59 19 3
0

0101000
+23 0 -23 4 *
Ed
 1e-007 1 1 0
1  14 0 0 131.106312461577
6  60 19 8
6  61 20 8
0

0101000
+23 7 -47 8 *
Ed
 1e-007 1 1 0
1  14 0 0 131.106312461577
6  62 19 9
6  63 21 9
0

0101000
+23 7 -45 9 *
Wi

0101100
+22 2 -21 11 +20 12 -43 2 *
Fa
0  1e-007 7 2
2  19
0101000
+19 0 *
Ve
1e-007
90.925064 13.611534 0
0 0

0101101
*
Ed
 1e-007 1 1 0
1  15 0 0 10
6  64 5 0
6  65 23 0
6  66 26 3
6  67 22 3
0

0101000
+17 0 -17 4 *
Ed
 1e-007 1 1 0
1  16 0 0 14.5286612086263
6  68 23 7
6  69 23 6
6  70 8 7
6  71 27 8
6  72 28 9
6  73 20 8
6  74 21 9
0

0101000
+17 7 -23 7 *
Wi

0101100
+16 0 -22 0 -15 5 +15 10 *
Fa
0  1e-007 9 0
2  23
0101000
+14 0 *
Ed
 1e-007 1 1 0
1  6 0 53.3572415384225 184.463554
6  75 20 8
6  76 22 8
0

0101000
+40 8 -17 7 *
Wi

0101100
+21 11 +15 11 +12 11 +39 16 *
Fa
0  1e-007 5 2
2  20
0101000
+11 0 *
Ed
 1e-007 1 1 0
1  6 0 53.3572415384225 184.463554
6  77 21 9
6  78 22 9
0

0101000
+35 9 -17 7 *
Wi

0101100
+20 12 +15 12 +9 12 +34 20 *
Fa
0  1e-007 5 18
2  21
0101000
+8 0 *
Wi

0101100
-12 11 -16 2 +9 12 +30 13 *
Fa
0  1e-007 4 2
2  22
0101000
+6 0 *
Sh

0101100
-18 0 -13 2 -10 0 +7 0 -28 0 -5 0 *
So

0100000
+4 0 *
CS

0101000
+48 0 +24 0 +3 0 *
Co

1100000
+2 1 *

+1 0 